{
  "accessors": [
    {
      "bufferView": 2,
      "componentType": 5126,
      "count": 43979,
      "max": [
        11.577425956726074,
        23.484769821166992,
        10.157208442687988
      ],
      "min": [
        -12.01254653930664,
        -0.6291260123252869,
        -10.201613426208496
      ],
      "type": "VEC3"
    },
    {
      "bufferView": 2,
      "byteOffset": 527748,
      "componentType": 5126,
      "count": 43979,
      "max": [
        0.9999942183494568,
        1.0,
        0.9999897480010986
      ],
      "min": [
        -0.9999992251396179,
        -1.0,
        -0.999958336353302
      ],
      "type": "VEC3"
    },
    {
      "bufferView": 3,
      "componentType": 5126,
      "count": 43979,
      "max": [
        0.9999960064888,
        0.9997539520263672,
        0.9999917149543762,
        1.0
      ],
      "min": [
        -0.9998154044151306,
        -0.9999598860740662,
        -0.9999876618385315,
        1.0
      ],
      "type": "VEC4"
    },
    {
      "bufferView": 1,
      "componentType": 5126,
      "count": 43979,
      "max": [
        0.999284029006958,
        0.9119619727134705
      ],
      "min": [
        0.0,
        0.006006999872624874
      ],
      "type": "VEC2"
    },
    {
      "bufferView": 0,
      "componentType": 5125,
      "count": 256374,
      "type": "SCALAR"
    }
  ],
  "asset": {
    "extras": {
      "author": "UJJWAL CHAUHAN (https://sketchfab.com/Ujjwal-Chauhan)",
      "license": "CC-BY-4.0 (http://creativecommons.org/licenses/by/4.0/)",
      "source": "https://sketchfab.com/3d-models/ancient-pot-03-b255bccc46b841be8f69cc1d7046d681",
      "title": "Ancient Pot 03"
    },
    "generator": "Sketchfab-16.7.0",
    "version": "2.0"
  },
  "bufferViews": [
    {
      "buffer": 0,
      "byteLength": 1025496,
      "name": "floatBufferViews",
      "target": 34963
    },
    {
      "buffer": 0,
      "byteLength": 351832,
      "byteOffset": 1025496,
      "byteStride": 8,
      "name": "floatBufferViews",
      "target": 34962
    },
    {
      "buffer": 0,
      "byteLength": 1055496,
      "byteOffset": 1377328,
      "byteStride": 12,
      "name": "floatBufferViews",
      "target": 34962
    },
    {
      "buffer": 0,
      "byteLength": 703664,
      "byteOffset": 2432824,
      "byteStride": 16,
      "name": "floatBufferViews",
      "target": 34962
    }
  ],
  "buffers": [
    {
      "byteLength": 3136488,
      "uri": "scene.bin"
    }
  ],
  "images": [
    {
      "uri": "textures/DefaultMaterial_1001_baseColor.jpeg"
    },
    {
      "uri": "textures/DefaultMaterial_1001_metallicRoughness.png"
    },
    {
      "uri": "textures/DefaultMaterial_1001_normal.png"
    }
  ],
  "materials": [
    {
      "doubleSided": true,
      "name": "DefaultMaterial_1001",
      "normalTexture": {
        "index": 2
      },
      "occlusionTexture": {
        "index": 1
      },
      "pbrMetallicRoughness": {
        "baseColorTexture": {
          "index": 0
        },
        "metallicRoughnessTexture": {
          "index": 1
        },
        "roughnessFactor": 0.5321879179053651
      }
    }
  ],
  "meshes": [
    {
      "name": "defaultMaterial",
      "primitives": [
        {
          "attributes": {
            "NORMAL": 1,
            "POSITION": 0,
            "TANGENT": 2,
            "TEXCOORD_0": 3
          },
          "indices": 4,
          "material": 0,
          "mode": 4
        }
      ]
    }
  ],
  "nodes": [
    {
      "children": [
        1
      ],
      "matrix": [
        1.0,
        0.0,
        0.0,
        0.0,
        0.0,
        2.220446049250313e-16,
        -1.0,
        0.0,
        0.0,
        1.0,
        2.220446049250313e-16,
        0.0,
        0.0,
        0.0,
        0.0,
        1.0
      ],
      "name": "Sketchfab_model"
    },
    {
      "children": [
        2
      ],
      "matrix": [
        1.0,
        0.0,
        0.0,
        0.0,
        0.0,
        -4.371139006309477e-08,
        0.999999999999999,
        0.0,
        0.0,
        -0.999999999999999,
        -4.371139006309477e-08,
        0.0,
        0.0,
        0.0,
        0.0,
        1.0
      ],
      "name": "Collada visual scene group"
    },
    {
      "children": [
        3
      ],
      "name": "Retopo_SuperVoxels"
    },
    {
      "mesh": 0,
      "name": "defaultMaterial"
    }
  ],
  "samplers": [
    {
      "magFilter": 9729,
      "minFilter": 9987,
      "wrapS": 10497,
      "wrapT": 10497
    }
  ],
  "scene": 0,
  "scenes": [
    {
      "name": "Sketchfab_Scene",
      "nodes": [
        0
      ]
    }
  ],
  "textures": [
    {
      "sampler": 0,
      "source": 0
    },
    {
      "sampler": 0,
      "source": 1
    },
    {
      "sampler": 0,
      "source": 2
    }
  ]
}
